<?xml version="1.0" standalone="no"?>
<!DOCTYPE svg PUBLIC "-//W3C//DTD SVG 20010904//EN"
 "http://www.w3.org/TR/2001/REC-SVG-20010904/DTD/svg10.dtd">
<svg version="1.0" xmlns="http://www.w3.org/2000/svg"
 width="800.000000pt" height="800.000000pt" viewBox="0 0 800.000000 800.000000"
 preserveAspectRatio="xMidYMid meet">
<metadata>
Created by potrace 1.14, written by Peter Selinger 2001-2017
</metadata>
<g transform="translate(0.000000,800.000000) scale(0.100000,-0.100000)"
fill="#000000" stroke="none">
<path d="M814 7185 c-4 -8 -12 -15 -19 -15 -9 0 -12 -8 -10 -20 2 -11 0 -18
-4 -15 -5 3 -12 -2 -15 -11 -3 -8 -11 -12 -16 -9 -6 4 -10 3 -9 -2 3 -20 -2
-34 -10 -28 -6 3 -8 -3 -6 -14 2 -13 -3 -21 -18 -25 -12 -3 -18 -8 -14 -12 4
-4 -3 -14 -14 -22 -17 -12 -18 -16 -8 -23 10 -6 11 -9 2 -9 -7 0 -13 -7 -13
-15 0 -8 -6 -14 -12 -12 -7 1 -13 -6 -13 -16 0 -10 -5 -21 -11 -25 -6 -4 -10
-15 -9 -24 2 -9 -3 -19 -11 -22 -7 -3 -11 -12 -8 -20 3 -8 0 -17 -7 -22 -8 -5
-10 -3 -4 7 5 8 4 11 -1 6 -5 -5 -9 -14 -10 -20 0 -7 -2 -20 -2 -30 -1 -12 -6
-15 -14 -11 -9 5 -9 2 1 -9 7 -9 9 -17 3 -17 -12 0 -26 -46 -24 -78 0 -12 -3
-20 -7 -18 -5 3 -7 -6 -5 -19 1 -14 -1 -23 -6 -20 -4 3 -10 -1 -13 -9 -3 -8 2
-17 11 -21 15 -6 14 -9 -7 -26 -13 -10 -19 -19 -14 -19 11 0 11 -36 0 -46 -3
-4 -1 -16 5 -27 9 -17 8 -19 -7 -13 -14 5 -16 4 -7 -7 7 -8 9 -17 5 -20 -3 -4
-1 -7 6 -7 8 0 9 -5 1 -19 -13 -24 -13 -34 -1 -26 10 5 6 -33 -3 -43 -3 -2 0
-14 6 -25 9 -17 8 -19 -7 -13 -14 5 -16 4 -7 -7 7 -8 9 -17 5 -20 -3 -4 -2 -7
3 -7 10 0 11 -76 1 -86 -3 -4 -1 -16 5 -27 9 -17 8 -19 -7 -13 -14 5 -16 4 -7
-7 7 -8 9 -17 5 -20 -3 -4 -1 -7 6 -7 7 0 9 -5 6 -10 -4 -6 -11 -8 -16 -5 -5
3 -6 -1 -3 -9 3 -9 11 -13 18 -9 6 4 5 -1 -3 -11 -12 -14 -12 -19 -2 -26 11
-6 11 -9 0 -13 -11 -4 -11 -6 1 -7 10 0 6 -6 -10 -16 -20 -12 -21 -14 -4 -9
14 4 21 1 21 -9 0 -9 -4 -13 -9 -10 -4 3 -8 0 -8 -5 0 -6 6 -11 13 -12 6 0 3
-4 -8 -9 -11 -5 -15 -9 -9 -9 7 -1 14 -10 17 -22 4 -16 2 -19 -10 -15 -12 5
-13 4 -5 -7 7 -8 9 -17 5 -20 -3 -4 -2 -7 4 -7 11 0 11 -29 0 -47 -4 -6 -3
-14 3 -18 5 -3 10 -12 10 -18 0 -7 -4 -6 -10 3 -8 12 -10 9 -10 -13 0 -16 4
-26 8 -23 5 3 9 -1 9 -9 0 -8 -4 -12 -9 -9 -4 3 -8 -2 -8 -11 0 -9 4 -14 8
-11 5 3 9 -1 9 -9 0 -8 -4 -12 -9 -9 -4 3 -8 -2 -8 -11 0 -9 4 -14 8 -11 5 3
9 -1 9 -9 0 -8 -4 -12 -9 -9 -4 3 -8 -2 -8 -11 0 -9 4 -14 9 -11 10 7 8 -41
-2 -51 -4 -3 -1 -15 5 -26 9 -17 8 -19 -7 -13 -14 5 -16 4 -7 -7 7 -8 9 -17 5
-20 -3 -4 -2 -7 4 -7 10 0 11 -35 0 -46 -3 -4 -1 -16 5 -27 9 -17 8 -19 -7
-13 -15 6 -16 4 -4 -10 14 -17 17 -53 6 -71 -4 -6 -3 -14 2 -17 10 -6 7 -60
-5 -90 -5 -14 -4 -17 5 -11 10 6 11 3 2 -13 -14 -27 -14 -35 2 -25 6 4 4 -5
-6 -20 -16 -25 -16 -26 0 -20 15 5 16 3 5 -8 -16 -17 -16 -32 1 -23 7 5 7 1
-2 -10 -12 -14 -12 -19 -2 -26 11 -6 11 -9 0 -13 -11 -4 -11 -6 1 -7 10 0 6
-6 -10 -16 -20 -12 -21 -14 -4 -9 14 4 21 1 21 -9 0 -9 -4 -13 -9 -10 -4 3 -8
0 -8 -5 0 -6 6 -11 13 -12 6 0 3 -4 -8 -9 -11 -5 -15 -9 -9 -9 7 -1 14 -10 17
-22 4 -16 2 -19 -10 -15 -12 5 -13 4 -5 -7 7 -8 9 -17 5 -20 -3 -4 -2 -7 4 -7
11 0 11 -29 0 -47 -4 -6 -3 -14 3 -18 5 -3 10 -12 10 -18 0 -7 -4 -6 -10 3 -6
10 -9 6 -8 -18 1 -17 5 -29 9 -26 8 5 3 -35 -5 -44 -3 -2 0 -14 6 -25 9 -17 8
-19 -7 -13 -14 5 -16 4 -7 -7 7 -8 9 -17 5 -20 -3 -4 -2 -7 3 -7 10 0 11 -76
1 -86 -3 -4 -1 -16 5 -27 9 -17 8 -19 -7 -13 -14 5 -16 4 -7 -7 7 -8 9 -17 5
-20 -3 -4 -1 -7 6 -7 8 0 9 -5 1 -19 -13 -24 -13 -34 -1 -26 10 5 6 -33 -3
-43 -3 -2 0 -14 6 -25 9 -17 8 -19 -7 -13 -14 5 -16 4 -7 -7 7 -8 9 -17 5 -20
-3 -4 -2 -7 3 -7 10 0 11 -76 1 -86 -3 -4 -1 -16 5 -27 9 -17 8 -19 -7 -13
-14 5 -16 4 -7 -7 7 -8 9 -17 5 -20 -3 -4 -1 -7 6 -7 7 0 9 -5 6 -10 -4 -6
-11 -8 -16 -5 -5 3 -6 -1 -3 -9 3 -9 11 -13 18 -9 6 4 5 -1 -3 -11 -12 -14
-12 -19 -2 -26 11 -6 11 -9 0 -13 -11 -4 -11 -6 1 -7 10 0 6 -6 -10 -16 -20
-12 -21 -14 -4 -9 14 4 21 1 21 -9 0 -9 -4 -13 -9 -10 -4 3 -8 0 -8 -5 0 -6 6
-11 13 -12 6 0 3 -4 -8 -9 -11 -5 -15 -9 -9 -9 7 -1 14 -10 17 -22 4 -16 2
-19 -10 -15 -12 5 -13 4 -5 -7 7 -8 9 -17 5 -20 -3 -4 -2 -7 4 -7 11 0 11 -29
0 -47 -4 -6 -3 -14 3 -18 5 -3 10 -12 10 -18 0 -7 -4 -6 -10 3 -8 12 -10 9
-10 -13 0 -16 4 -26 8 -23 5 3 9 -1 9 -9 0 -8 -4 -12 -9 -9 -4 3 -8 -2 -8 -11
0 -9 4 -14 8 -11 5 3 9 -1 9 -9 0 -8 -4 -12 -9 -9 -4 3 -8 -2 -8 -11 0 -9 4
-14 8 -11 5 3 9 -1 9 -9 0 -8 -4 -12 -9 -9 -4 3 -8 -2 -8 -11 0 -9 4 -14 9
-11 10 7 8 -41 -2 -51 -4 -3 -1 -15 5 -26 9 -17 8 -19 -7 -13 -14 5 -16 4 -7
-7 7 -8 9 -17 5 -20 -3 -4 -2 -7 4 -7 10 0 11 -35 0 -46 -3 -4 -1 -16 5 -27 9
-17 8 -19 -7 -13 -15 6 -16 4 -4 -10 14 -17 17 -53 6 -71 -4 -6 -3 -14 2 -17
10 -6 7 -60 -5 -90 -5 -14 -4 -17 5 -11 10 6 11 3 2 -13 -14 -27 -14 -35 2
-25 6 4 4 -5 -6 -20 -16 -25 -16 -26 0 -20 15 5 16 3 6 -8 -7 -7 -13 -17 -13
-22 0 -4 6 -5 13 -1 7 5 7 1 -2 -10 -12 -14 -12 -19 -2 -26 11 -6 11 -9 0 -13
-11 -4 -11 -6 1 -7 10 0 6 -6 -10 -16 -20 -12 -21 -14 -4 -9 14 4 21 1 21 -9
0 -9 -4 -13 -9 -10 -4 3 -8 0 -8 -5 0 -6 6 -11 13 -12 6 0 3 -4 -8 -9 -11 -5
-15 -9 -9 -9 7 -1 14 -10 17 -22 4 -16 2 -19 -10 -15 -12 5 -13 4 -5 -7 7 -8
9 -17 5 -20 -3 -4 -2 -7 4 -7 11 0 11 -29 0 -47 -4 -6 -3 -14 3 -18 5 -3 10
-12 10 -18 0 -7 -4 -6 -10 3 -6 10 -9 6 -8 -18 1 -17 5 -29 9 -26 8 5 3 -35
-5 -44 -3 -2 0 -14 6 -25 9 -17 8 -19 -7 -13 -14 5 -16 4 -7 -7 7 -8 9 -17 5
-20 -3 -4 -2 -7 3 -7 10 0 11 -76 1 -86 -3 -4 -1 -16 5 -27 9 -17 8 -19 -7
-13 -14 5 -16 4 -7 -7 7 -8 9 -17 5 -20 -3 -4 -1 -7 6 -7 8 0 9 -5 1 -19 -13
-24 -13 -34 -1 -26 10 5 6 -33 -3 -43 -3 -2 0 -14 6 -25 9 -17 8 -19 -7 -13
-14 5 -16 4 -7 -7 7 -8 9 -17 5 -20 -3 -4 -2 -7 3 -7 10 0 11 -76 1 -86 -3 -4
-1 -16 5 -27 9 -17 8 -19 -7 -13 -14 5 -16 4 -7 -7 7 -8 9 -17 5 -20 -3 -4 -1
-7 6 -7 7 0 9 -5 6 -10 -4 -6 -11 -8 -16 -5 -5 3 -6 -1 -3 -9 3 -9 11 -13 18
-9 6 4 5 -1 -3 -11 -12 -14 -12 -19 -2 -26 11 -6 11 -9 0 -13 -11 -4 -11 -6 1
-7 10 0 6 -6 -10 -16 -20 -12 -21 -14 -4 -9 14 4 21 1 21 -9 0 -9 -4 -13 -9
-10 -4 3 -8 0 -8 -5 0 -6 6 -11 13 -12 6 0 3 -4 -8 -9 -11 -5 -15 -9 -9 -9 7
-1 14 -10 17 -22 4 -16 2 -19 -10 -15 -12 5 -13 4 -5 -7 7 -8 9 -17 5 -20 -3
-4 -2 -7 4 -7 11 0 11 -29 0 -47 -4 -6 -3 -14 3 -18 5 -3 10 -12 10 -18 0 -7
-4 -6 -10 3 -8 12 -10 9 -10 -13 0 -16 4 -26 8 -23 5 3 9 -1 9 -9 0 -8 -4 -12
-9 -9 -4 3 -8 -2 -8 -11 0 -9 4 -14 8 -11 5 3 9 -1 9 -9 0 -8 -4 -12 -9 -9 -4
3 -8 -2 -8 -11 0 -9 4 -14 8 -11 5 3 9 -1 9 -9 0 -8 -4 -12 -9 -9 -4 3 -8 -2
-8 -11 0 -9 4 -14 9 -11 10 7 8 -41 -2 -51 -4 -3 -1 -15 5 -26 9 -17 8 -19 -7
-13 -14 5 -16 4 -7 -7 7 -8 9 -17 5 -20 -3 -4 -2 -7 4 -7 11 0 11 -35 0 -46
-4 -4 -1 -14 6 -22 9 -13 9 -14 0 -8 -7 4 -13 2 -13 -3 0 -6 6 -11 13 -12 6 0
3 -4 -8 -9 -15 -6 -16 -9 -4 -9 9 -1 16 -8 16 -16 0 -8 -4 -12 -9 -9 -4 3 -8
0 -8 -5 0 -6 5 -11 11 -11 8 0 7 -6 -2 -17 -12 -14 -12 -16 0 -8 11 7 13 0 8
-33 -3 -23 -2 -40 2 -38 3 2 6 -11 5 -30 -2 -29 0 -33 12 -23 12 10 13 8 5
-14 -7 -18 -7 -28 0 -32 5 -4 7 -15 4 -25 -3 -10 -1 -21 5 -25 6 -4 9 -13 6
-21 -3 -9 1 -14 12 -15 9 0 12 -3 5 -5 -8 -4 -9 -13 -3 -30 5 -13 6 -24 2 -24
-4 0 0 -6 8 -13 8 -7 17 -21 18 -32 2 -11 8 -21 13 -23 5 -2 9 -15 9 -28 0
-14 4 -22 10 -19 9 5 12 -8 9 -31 0 -4 3 -10 8 -13 4 -3 19 -19 33 -36 14 -16
17 -23 8 -16 -23 17 -23 0 0 -20 34 -31 53 -60 46 -71 -4 -6 -3 -9 2 -6 5 3
15 0 22 -8 7 -8 10 -14 6 -14 -4 0 2 -9 14 -20 21 -20 35 -20 3248 -20 2775 0
3225 2 3215 14 -10 11 -7 17 10 30 12 8 27 12 32 9 6 -3 7 -1 3 5 -9 16 14 61
36 68 16 5 17 8 7 20 -10 12 -10 15 1 12 15 -3 51 62 42 76 -3 5 2 7 10 3 12
-4 15 0 13 19 -1 15 4 28 11 31 8 3 11 9 8 14 -3 5 0 9 5 9 6 0 11 5 11 11 0
5 -5 7 -10 4 -15 -9 -12 2 6 19 9 9 17 22 18 29 1 6 5 18 10 25 4 7 8 29 9 47
0 19 5 31 10 28 5 -3 8 5 7 18 -4 43 0 60 11 54 7 -5 9 29 7 109 -2 64 0 116
4 116 4 0 3 14 -2 30 -5 17 -5 30 0 30 5 0 7 6 4 14 -8 21 -10 246 -2 246 4 0
3 14 -2 30 -5 17 -5 30 0 30 5 0 7 6 4 14 -8 21 -10 246 -2 246 4 0 3 14 -2
30 -5 17 -5 30 0 30 5 0 7 6 4 14 -8 21 -10 246 -2 246 4 0 3 14 -2 30 -5 17
-5 30 0 30 5 0 7 6 4 14 -9 22 -10 246 -1 246 4 0 3 9 -3 20 -8 14 -8 20 0 20
8 0 8 6 0 20 -8 15 -8 20 2 20 9 0 9 3 0 12 -15 15 -16 32 -1 22 8 -4 8 0 0
15 -8 15 -9 21 -1 21 6 0 8 5 5 11 -11 16 -13 59 -4 59 5 0 6 7 3 15 -8 19
-11 125 -4 125 3 0 3 27 0 60 -3 33 -2 60 2 60 5 0 4 9 -2 20 -8 14 -8 20 0
20 8 0 8 6 0 20 -8 15 -8 20 2 20 9 0 9 3 0 12 -15 15 -16 32 -1 22 8 -4 8 0
0 15 -9 16 -9 21 0 21 7 0 5 10 -6 26 -9 15 -12 23 -5 19 9 -6 11 2 8 29 -2
20 -2 36 2 36 3 0 3 58 0 130 -3 72 -1 130 3 130 4 0 3 9 -3 20 -8 15 -8 20 2
20 9 0 9 3 0 12 -15 15 -16 32 -1 22 8 -4 8 0 0 15 -8 15 -9 21 -1 21 6 0 8 5
5 11 -11 16 -13 59 -4 59 5 0 6 7 3 15 -8 19 -11 125 -4 125 3 0 3 27 0 60 -3
33 -2 60 2 60 5 0 4 9 -2 20 -8 14 -8 20 0 20 8 0 8 6 0 20 -8 15 -8 20 2 20
9 0 9 3 0 12 -15 15 -16 32 -1 22 8 -4 8 0 0 15 -9 16 -9 21 0 21 7 0 5 10 -6
26 -9 15 -12 23 -5 19 9 -6 11 2 8 29 -2 20 -2 36 2 36 3 0 3 58 0 130 -3 72
-1 130 3 130 4 0 3 9 -3 20 -8 15 -8 20 2 20 9 0 9 3 0 12 -15 15 -16 32 -1
22 8 -4 8 0 0 15 -8 15 -9 21 -1 21 6 0 8 5 5 11 -11 16 -13 59 -4 59 5 0 6 7
3 15 -8 19 -11 125 -4 125 3 0 3 27 0 60 -3 33 -2 60 2 60 5 0 4 9 -2 20 -8
14 -8 20 0 20 8 0 8 6 0 20 -8 15 -8 20 2 20 9 0 9 3 0 12 -15 15 -16 32 -1
22 8 -4 8 0 0 15 -8 14 -8 21 -1 21 7 0 7 7 -1 22 -9 16 -9 23 -1 26 9 3 9 9
2 23 -8 14 -7 19 2 19 9 0 9 3 0 12 -15 15 -16 32 -1 22 8 -4 8 0 0 15 -8 15
-9 21 -1 21 6 0 8 5 5 11 -11 16 -13 59 -4 59 5 0 6 7 3 15 -8 19 -11 125 -4
125 3 0 3 27 0 60 -3 33 -2 60 2 60 5 0 4 9 -2 20 -8 14 -8 20 0 20 8 0 8 6 0
20 -8 15 -8 20 2 20 9 0 9 3 0 12 -15 15 -16 32 -1 22 8 -4 8 0 0 15 -9 16 -9
21 0 21 7 0 5 10 -6 26 -9 15 -12 23 -5 19 9 -6 11 2 8 29 -2 20 -2 36 2 36 3
0 3 58 0 130 -3 72 -1 130 3 130 4 0 3 9 -3 20 -8 15 -8 20 1 20 8 0 7 5 -2
17 -11 13 -11 17 -2 20 9 3 10 10 3 24 -8 14 -7 19 2 19 9 0 9 3 1 11 -6 6 -9
18 -6 26 3 8 -3 20 -13 28 -12 9 -14 14 -6 15 8 0 10 5 5 13 -4 6 -8 15 -9 20
-1 4 -3 9 -4 12 -6 13 -6 32 2 48 6 12 5 17 -4 15 -7 -2 -12 5 -12 14 1 10 -2
15 -7 12 -5 -3 -9 6 -9 20 0 14 -4 26 -8 26 -4 0 -8 10 -9 22 -1 11 -8 25 -15
29 -10 7 -10 9 1 9 11 0 9 4 -5 14 -10 8 -16 18 -12 21 4 4 -3 16 -15 27 -12
11 -16 16 -9 13 11 -6 11 -3 1 13 -7 12 -17 18 -22 15 -4 -3 -7 3 -5 13 2 11
-2 18 -10 16 -6 -1 -11 1 -11 5 4 23 -2 43 -11 38 -6 -3 -10 -1 -10 4 0 6 0
13 0 16 0 11 -45 50 -54 47 -5 -2 -3 5 5 14 8 10 10 15 4 12 -5 -3 -16 0 -23
8 -7 8 -9 14 -5 15 4 0 -3 4 -15 10 -13 5 -26 18 -29 29 -5 20 -15 20 -3179
20 -2813 0 -3175 -2 -3180 -15z"/>
</g>
</svg>
